<?xml version="1.0" encoding="UTF-8" standalone="no"?>
<svg   xmlns="http://www.w3.org/2000/svg"   viewBox="0 -256 1792 1792" id="svg3001" version="1.1" width="100%" height="100%"  >

  <defs id="defs3009"/>
  <g transform="matrix(1,0,0,-1,516.33898,1194.3051)" id="g3003">
    <path d="m 627,992 q 0,-13 -10,-23 L 224,576 617,183 q 10,-10 10,-23 0,-13 -10,-23 L 567,87 Q 557,77 544,77 531,77 521,87 L 55,553 q -10,10 -10,23 0,13 10,23 l 466,466 q 10,10 23,10 13,0 23,-10 l 50,-50 q 10,-10 10,-23 z" id="path3005"  style="fill:currentColor"/>
  </g>
</svg>