<?xml version="1.0" encoding="UTF-8" standalone="no"?>
<svg xmlns="http://www.w3.org/2000/svg" viewBox="0 -256 1792 1792" id="svg3013" version="1.1" width="100%" height="100%" >
  <defs id="defs3021"/>
  <g transform="matrix(1,0,0,-1,577.08475,1209.4915)" id="g3015">
    <path d="m 595,576 q 0,-13 -10,-23 L 119,87 Q 109,77 96,77 83,77 73,87 l -50,50 q -10,10 -10,23 0,13 10,23 L 416,576 23,969 q -10,10 -10,23 0,13 10,23 l 50,50 q 10,10 23,10 13,0 23,-10 L 585,599 q 10,-10 10,-23 z" id="path3017" style="fill:currentColor"/>
  </g>
</svg>